<?xml version="1.0" encoding="utf-8"?>
<!-- Generator: Adobe Illustrator 19.2.0, SVG Export Plug-In . SVG Version: 6.00 Build 0)  -->
<svg version="1.1" id="Layer_1" xmlns="http://www.w3.org/2000/svg" xmlns:xlink="http://www.w3.org/1999/xlink" x="0px" y="0px"
	 viewBox="0 0 96 96" style="enable-background:new 0 0 96 96;" xml:space="preserve">
<style type="text/css">
	.st0{fill:#ED1E79;}
</style>
<g>
	<path class="st0" d="M21.8,55.4c-1.8-1.9-2.8-4.2-2.8-7c0-2.8,0.9-5.2,2.8-7c1.8-1.8,4.2-2.8,7.1-2.8c3,0,5.4,0.9,7.2,2.8
		c1.8,1.8,2.8,4.2,2.8,7c0,2.8-0.9,5.1-2.8,7c-1.8,1.9-4.2,2.8-7.2,2.8C26.1,58.2,23.7,57.3,21.8,55.4z"/>
	<path class="st0" d="M72.1,41.4c1.8,1.8,2.8,4.2,2.8,7c0,2.8-0.9,5.1-2.8,7c-1.8,1.9-4.2,2.8-7.1,2.8c-3,0-5.4-0.9-7.2-2.8
		c-1.8-1.9-2.8-4.2-2.8-7c0-2.8,0.9-5.2,2.8-7c1.8-1.8,4.2-2.8,7.2-2.8C67.9,38.6,70.3,39.6,72.1,41.4z"/>
	<path class="st0" d="M94.5,48c0,25.7-20.8,46.6-46.6,46.6c-11,0-21-3.8-28.9-10.2V62.7c-0.1-0.3-0.3-0.6-0.4-0.9
		c-0.1-0.2-0.2-0.4-0.2-0.6c0.1,0.1,0.3,0.3,0.6,0.6c0.5,0.4,1.2,0.9,2.1,1.3c0.8,0.5,2,0.9,3.3,1.3s2.8,0.6,4.5,0.6
		c2.4,0,4.6-0.4,6.7-1.3c2.1-0.9,3.9-2.1,5.4-3.6c1.5-1.6,2.7-3.3,3.6-5.4c0.8-2,1.3-4.2,1.3-6.4c0-2.3-0.4-4.4-1.3-6.4
		c-0.9-2-2.1-3.7-3.6-5.3c-1.6-1.5-3.3-2.7-5.4-3.6c-2.1-0.8-4.3-1.3-6.7-1.3c-1.5,0-2.9,0.2-4.2,0.6c-1.3,0.5-2.4,1-3.4,1.5
		c-0.9,0.6-1.7,1.1-2.3,1.6c-0.6,0.5-0.8,0.8-0.8,1c-0.1-0.7-0.1-1.3-0.2-2c-0.1-0.6-0.1-1.3-0.1-2H12v44.8
		C5.4,69.4,1.5,59.1,1.5,48C1.5,22.3,22.3,1.5,48,1.5c10,0,19.4,3.2,26.9,8.6v23.5c0.1,0.5,0.3,0.9,0.4,1.3c0.2,0.5,0.4,0.9,0.4,1.4
		c0-0.2-0.3-0.5-0.8-1s-1.3-1-2.3-1.6c-1-0.5-2.1-1-3.4-1.4c-1.3-0.4-2.8-0.6-4.2-0.6c-2.4,0-4.6,0.4-6.7,1.3
		c-2.1,0.9-3.9,2.1-5.4,3.6c-1.5,1.6-2.7,3.3-3.6,5.3c-0.8,2-1.3,4.2-1.3,6.4c0,2.3,0.4,4.4,1.3,6.4c0.9,2,2.1,3.8,3.6,5.4
		c1.6,1.5,3.3,2.7,5.4,3.6c2.1,0.8,4.3,1.3,6.7,1.3c1.7,0,3.2-0.1,4.5-0.6c1.3-0.4,2.5-0.8,3.3-1.3c0.9-0.4,1.6-0.9,2.1-1.3
		c0.6-0.5,0.8-0.8,0.8-1v3.5H82v-48C89.8,24.6,94.5,35.7,94.5,48z"/>
</g>
</svg>
